<?xml version="1.0" standalone="no"?>
<!DOCTYPE svg PUBLIC "-//W3C//DTD SVG 20010904//EN"
 "http://www.w3.org/TR/2001/REC-SVG-20010904/DTD/svg10.dtd">
<svg version="1.0" xmlns="http://www.w3.org/2000/svg"
 width="70.000000pt" height="70.000000pt" viewBox="0 0 70.000000 70.000000"
 preserveAspectRatio="xMidYMid meet">
<metadata>
Created by potrace 1.11, written by Peter Selinger 2001-2013
</metadata>
<g transform="translate(0.000000,70.000000) scale(0.100000,-0.100000)"
fill="#000000" stroke="none">
<path d="M439 655 c-24 -13 -85 -82 -278 -313 -35 -43 -72 -90 -82 -107 -37
-58 -16 -149 43 -185 42 -27 126 -23 159 6 28 24 169 200 169 210 0 4 37 52
81 107 96 117 111 156 83 214 -35 71 -114 101 -175 68z m110 -34 c23 -6 50
-51 31 -51 -6 0 -10 -5 -10 -11 0 -5 4 -8 9 -5 5 3 11 -4 14 -15 5 -19 4 -20
-12 -5 -24 21 -47 20 -71 -4 -24 -24 -26 -57 -4 -81 10 -11 12 -19 5 -24 -6
-3 -11 -1 -11 4 0 6 -5 11 -11 11 -6 0 -9 -7 -5 -15 3 -8 -3 -20 -13 -27 -9
-7 -21 -20 -26 -28 -8 -13 -7 -13 8 -1 16 12 17 12 11 -5 -5 -16 -2 -15 15 5
12 12 18 28 14 34 -4 6 0 8 10 4 10 -4 16 -2 14 4 -1 6 15 22 36 35 l38 25
-50 -63 c-28 -35 -70 -84 -93 -110 -43 -46 -43 -46 -61 -26 -18 19 -18 19 0
18 30 -4 43 -1 43 9 0 8 -23 6 -60 -6 -12 -4 -12 -7 4 -19 11 -8 15 -14 9 -14
-33 0 -58 70 -34 95 23 25 21 53 -5 84 l-26 31 38 48 c89 111 116 125 193 103z
m-369 -396 c22 -26 -3 -67 -37 -63 -35 4 -41 30 -14 57 25 25 34 26 51 6z"/>
<path d="M450 409 c0 -5 5 -7 10 -4 6 3 10 8 10 11 0 2 -4 4 -10 4 -5 0 -10
-5 -10 -11z"/>
<path d="M430 334 c0 -8 5 -12 10 -9 6 3 10 10 10 16 0 5 -4 9 -10 9 -5 0 -10
-7 -10 -16z"/>
<path d="M400 325 c0 -8 5 -15 10 -15 6 0 10 7 10 15 0 8 -4 15 -10 15 -5 0
-10 -7 -10 -15z"/>
</g>
</svg>
