<?xml version="1.0" encoding="UTF-8"?>
<svg width="20px" height="20px" viewBox="0 0 20 20" version="1.1" xmlns="http://www.w3.org/2000/svg" xmlns:xlink="http://www.w3.org/1999/xlink">
    <!-- Generator: Sketch 45.2 (43514) - http://www.bohemiancoding.com/sketch -->
    <title>Icon/Info</title>
    <desc>Created with Sketch.</desc>
    <defs>
        <path d="M12,22 C6.486,22 2,17.515 2,12 C2,6.487 6.486,2 12,2 C17.514,2 22,6.486 22,12 C22,17.515 17.514,22 12,22 Z M12,4 C16.411,4 20,7.589 20,12 C20,16.411 16.411,20 12,20 C7.589,20 4,16.411 4,12 C4,7.589 7.589,4 12,4 Z M13,15 L13,11 C13,10.448 12.553,10 12,10 L10,10 L10,12 L11,12 L11,15 L9,15 L9,17 L15,17 L15,15 L13,15 Z M12,9.25 C12.6903559,9.25 13.25,8.69035594 13.25,8 C13.25,7.30964406 12.6903559,6.75 12,6.75 C11.3096441,6.75 10.75,7.30964406 10.75,8 C10.75,8.69035594 11.3096441,9.25 12,9.25 Z" id="path-1"></path>
    </defs>
    <g id="App-v2" stroke="none" stroke-width="1" fill="none" fill-rule="evenodd">
        <g id="Welcome" transform="translate(-35.000000, -732.000000)">
            <g id="Group" transform="translate(33.000000, 730.000000)">
                <g id="Icon/Info">
                    <rect id="Bounding-Box" x="0" y="0" width="24" height="24"></rect>
                    <mask id="mask-2" fill="white">
                        <use xlink:href="#path-1"></use>
                    </mask>
                    <g id="Mask"></g>
                    <g id="Mixin/Fill/Accent-1" mask="url(#mask-2)" fill-rule="evenodd" fill="#8E9290">
                        <rect id="Box" x="0" y="0" width="24" height="24"></rect>
                    </g>
                </g>
            </g>
        </g>
    </g>
</svg>
